PathFileType  4	(X/Y/Z) C:\Users\antoi\Documents\MyRepositories\mobilecap\ResultsAnalysis
DataRate	CameraRate	NumFrames	NumMarkers	Units	OrigDataRate	OrigDataStartFrame	OrigNumFrames
100.0	100.0	4	51	mm	100.0	131	261
Frame#	Time	r_knee			r_shank_antsup			r_ankle			r_calc			r_5meta			r_toe			L_knee			L_shank_antsup			L_ankle			L_calc			L_5meta			L_toe			r_sh2			r_sh3			r_sh4			L_sh2			L_sh3			r_thigh1			r_thigh2			r_thigh3			r_thigh4			r_thigh5			L_thigh1			L_thigh2			L_thigh3			L_thigh4			r.ASIS			r.PSIS			L.ASIS			L.PSIS			C7			R_Shoulder			L_Shoulder			R_Sternum			L_Sternum			R_humerus			R_elbow_med			R_elbow_lat			R_forearm			R_wrist_radius			R_wrist_ulna			L_humerus			L_elbow_med			L_elbow_lat			L_forearm			L_wrist_radius			L_wrist_ulna			R_HJC			L_HJC			R_HJC_reg			L_HJC_reg			
		X1	Y1	Z1	X2	Y2	Z2	X3	Y3	Z3	X4	Y4	Z4	X5	Y5	Z5	X6	Y6	Z6	X7	Y7	Z7	X8	Y8	Z8	X9	Y9	Z9	X10	Y10	Z10	X11	Y11	Z11	X12	Y12	Z12	X13	Y13	Z13	X14	Y14	Z14	X15	Y15	Z15	X16	Y16	Z16	X17	Y17	Z17	X18	Y18	Z18	X19	Y19	Z19	X20	Y20	Z20	X21	Y21	Z21	X22	Y22	Z22	X23	Y23	Z23	X24	Y24	Z24	X25	Y25	Z25	X26	Y26	Z26	X27	Y27	Z27	X28	Y28	Z28	X29	Y29	Z29	X30	Y30	Z30	X31	Y31	Z31	X32	Y32	Z32	X33	Y33	Z33	X34	Y34	Z34	X35	Y35	Z35	X36	Y36	Z36	X37	Y37	Z37	X38	Y38	Z38	X39	Y39	Z39	X40	Y40	Z40	X41	Y41	Z41	X42	Y42	Z42	X43	Y43	Z43	X44	Y44	Z44	X45	Y45	Z45	X46	Y46	Z46	X47	Y47	Z47	X48	Y48	Z48	X49	Y49	Z49	X50	Y50	Z50	X51	Y51	Z51	

131	1.30000000	-397.84757	668.31427	-382.53109	-418.74467	618.40084	-352.80036	-351.12577	262.32253	-380.23133	-405.03421	241.66164	-437.77137	-237.67855	167.59675	-351.20329	-189.19507	195.27248	-395.16830	-406.43517	657.95110	-775.61966	-366.83279	583.27360	-793.97593	-368.96164	255.55816	-788.72989	-428.39696	232.38880	-735.82483	-261.80356	154.41324	-803.45768	-215.13107	173.61474	-753.39997	-399.85745	505.12747	-340.13283	-348.35434	631.68022	-382.19680	-328.32483	517.73886	-384.21572	-453.68574	581.89898	-802.66706	-437.34256	460.43362	-812.47819	-438.41318	956.55301	-484.57458	-384.26226	862.50508	-460.32764	-389.59032	847.34032	-394.88743	-489.31284	949.93083	-385.04581	-438.68354	849.02487	-365.59462	-473.90930	971.51062	-749.15115	-427.47011	841.13691	-775.21597	-578.74492	937.21206	-768.46646	-536.79098	801.92446	-763.67888	-480.60433	1093.41355	-451.14884	-657.62771	1144.76436	-536.87392	-474.05979	1076.69056	-676.89491	-653.82860	1144.05362	-633.88812	-429.40022	1578.56567	-581.71809	-380.00749	1526.86633	-420.74494	-381.99616	1503.81406	-734.72398	-350.13473	1457.85362	-546.83413	-364.06976	1449.29131	-587.21762	-517.13392	1346.94160	-310.50545	-611.59973	1294.62049	-340.10133	-586.59730	1288.16658	-283.38587	-576.68648	1143.51091	-259.95773	-577.46228	1038.88707	-273.14067	-600.48890	1047.62455	-235.33962	-507.67589	1320.78955	-841.56783	-592.00016	1242.64367	-805.97806	-574.99889	1245.51801	-862.41987	-544.04349	1102.91920	-889.80167	-521.57061	996.41969	-873.76367	-561.30872	996.21058	-897.17229	-562.90574	1019.91633	-483.20375	-563.59196	1018.05528	-673.86477	-555.47882	1025.21021	-484.54437	-549.63091	1024.11642	-633.88989	
132	1.31000000	-383.69881	644.32792	-381.88024	-404.67611	594.43798	-352.06232	-337.09187	238.35679	-379.10626	-391.58304	217.29484	-436.36257	-223.36018	143.32379	-351.33295	-175.65755	171.28252	-395.61061	-392.03103	635.21321	-776.79930	-353.21554	559.95837	-795.92412	-357.04214	232.36498	-791.91449	-416.48748	209.56390	-738.66032	-250.61020	130.43704	-807.23043	-203.64825	149.38191	-757.10512	-385.87178	481.12437	-339.43793	-334.09465	607.57639	-381.40278	-314.17211	493.69763	-383.35949	-440.18017	559.06790	-803.64091	-424.63122	437.37719	-813.99526	-425.90764	932.71493	-484.76199	-371.66375	837.88805	-462.52520	-375.53485	824.42828	-394.72406	-476.16637	926.09137	-384.89430	-424.51422	825.77644	-365.36033	-461.03630	948.24455	-747.64948	-413.56901	818.24349	-773.69516	-565.35161	913.19627	-768.81682	-524.84858	777.03382	-761.59063	-469.63460	1069.62826	-450.90255	-647.46597	1118.57051	-536.17183	-463.56946	1053.36645	-676.49269	-643.85146	1118.00167	-633.56097	-422.63229	1554.29678	-582.00498	-373.12978	1502.73153	-421.07526	-374.36024	1479.62394	-734.83045	-342.52166	1434.47231	-546.88804	-361.46576	1421.04677	-583.15394	-511.90946	1323.63668	-312.26461	-605.47136	1271.17683	-342.53992	-581.49784	1264.88693	-285.81644	-573.59427	1120.13941	-260.96602	-575.62806	1015.33213	-273.41344	-599.41593	1025.02794	-236.59091	-497.48037	1295.19376	-842.13603	-579.99011	1215.69197	-807.90054	-562.81149	1218.74052	-863.60553	-531.43475	1076.54779	-891.96900	-508.36430	969.80936	-876.52548	-548.52863	969.72547	-899.58577	-551.01101	995.03881	-482.89609	-552.00819	993.37605	-673.55789	-543.67498	1000.54501	-484.18092	-538.13564	999.67317	-633.40453	
133	1.32000000	-368.48373	619.94008	-381.33342	-389.28706	570.54063	-351.35355	-324.66107	214.08452	-378.53679	-380.18257	192.70879	-435.76490	-211.20737	118.13880	-352.62128	-164.44093	146.36536	-397.52614	-376.28246	612.49475	-777.78420	-338.53987	536.24957	-797.54089	-346.83180	208.75027	-794.74455	-406.29836	186.11929	-741.41284	-241.18934	105.64385	-810.77852	-194.06653	124.48011	-760.89046	-371.28266	456.97236	-339.07146	-318.50378	582.87299	-381.05442	-299.61782	468.91143	-383.03715	-425.65206	536.52967	-804.12531	-411.99130	414.75451	-815.12575	-413.09977	908.41229	-483.94038	-357.68428	814.07855	-462.00768	-361.25917	801.04925	-393.51777	-463.43003	901.21756	-384.33408	-410.60701	801.58313	-364.87963	-449.54449	924.32949	-745.71068	-399.60720	794.87239	-772.20897	-552.40861	888.02268	-768.83791	-512.10488	751.41867	-759.68682	-459.06669	1044.95782	-450.34953	-637.80448	1091.29409	-535.33694	-453.47441	1029.17482	-676.29806	-634.57014	1090.89596	-632.99476	-415.67458	1528.51417	-582.95981	-366.19917	1477.29542	-421.87858	-366.53972	1453.96926	-735.22630	-334.89220	1409.73094	-547.06812	-353.02332	1396.54241	-584.23184	-505.26604	1298.01655	-313.70972	-598.13266	1245.40777	-344.89416	-575.00228	1239.10871	-288.11181	-568.79695	1094.33545	-262.08787	-571.75350	989.54337	-273.75458	-596.28313	999.81081	-238.04388	-485.40695	1267.12359	-843.17587	-566.18904	1186.11651	-810.12682	-548.63937	1189.34917	-865.20936	-516.06366	1047.74041	-894.24243	-491.95523	941.01061	-879.34529	-532.29512	940.77855	-902.29617	-539.43313	969.19134	-482.50819	-540.85595	967.78068	-673.16911	-532.11519	974.77661	-483.47197	-527.16612	974.16758	-632.92234	
134	1.33000000	-351.99119	595.31029	-381.06166	-372.57617	546.54427	-351.07451	-312.97597	189.67756	-378.50375	-369.79118	168.37733	-436.01880	-201.15292	90.35900	-354.93213	-154.90429	119.02253	-400.13206	-359.49390	589.27163	-778.19964	-323.04335	512.38374	-798.61989	-336.39516	185.18550	-797.42215	-395.70109	163.59252	-744.09402	-232.78870	79.29057	-814.42023	-185.17861	97.07172	-764.75905	-356.46058	432.55681	-339.23211	-301.86076	557.76883	-381.06405	-284.84886	443.55041	-383.19975	-410.16944	514.29315	-804.17645	-399.11506	392.54076	-815.70199	-399.92948	883.85665	-481.96779	-342.93009	790.53582	-459.76078	-346.96962	777.04970	-391.53472	-451.20743	875.16303	-383.32073	-396.92650	776.38922	-363.89967	-439.13418	899.68316	-743.93355	-385.62308	771.14776	-771.50467	-540.30618	861.35762	-768.21290	-496.12644	726.24705	-760.62183	-449.02042	1019.35191	-449.65499	-628.67781	1062.96711	-534.34326	-444.21796	1003.70862	-675.87372	-625.82059	1062.62234	-631.92500	-408.64118	1501.37898	-584.24410	-359.33285	1450.58790	-422.78973	-358.46698	1426.75615	-735.90338	-327.30320	1383.46331	-547.87395	-343.77161	1371.26767	-586.01339	-497.26512	1269.94441	-315.02750	-589.61540	1217.08521	-347.06374	-567.14162	1210.90751	-289.97182	-562.15911	1066.29635	-263.10459	-565.92527	961.45725	-274.33518	-590.61440	972.08305	-238.93953	-471.44414	1236.73704	-844.66385	-550.36697	1153.93367	-812.69846	-532.32612	1157.42803	-867.36024	-497.69395	1016.53275	-896.56973	-472.26600	910.14421	-882.02760	-512.51775	909.46373	-905.12888	-528.39315	942.38694	-481.74103	-530.45852	940.95147	-672.39485	-521.19327	948.02249	-482.53716	-516.81398	947.49316	-632.16856	
